<?xml version="1.0" encoding="UTF-8"?>
<!DOCTYPE svg PUBLIC "-//W3C//DTD SVG 1.1//EN" "http://www.w3.org/Graphics/SVG/1.1/DTD/svg11.dtd">
<!-- Creator: CorelDRAW 2018 (64 Bit) -->
<svg xmlns="http://www.w3.org/2000/svg" xml:space="preserve" width="26.0173mm" height="26.0173mm" version="1.1" style="shape-rendering:geometricPrecision; text-rendering:geometricPrecision; image-rendering:optimizeQuality; fill-rule:evenodd; clip-rule:evenodd"
viewBox="0 0 597.05 597.05"
 xmlns:xlink="http://www.w3.org/1999/xlink">
 <defs>
  <style type="text/css">
   <![CDATA[
    .fil0 {fill:none}
    .fil1 {fill:#4EA8DE}
    .fil2 {fill:#5E60CE}
   ]]>
  </style>
 </defs>
 <g id="Camada_x0020_1">
  <metadata id="CorelCorpID_0Corel-Layer"/>
  <rect class="fil0" x="-0" y="-0" width="597.05" height="597.05"/>
  <g id="_2164786798672">
   <g>
    <path class="fil1" d="M118.96 459.53l0 33.37 -84.34 0 0 -33.37 84.34 0zm-68 -30.7l46 0 0 117.63c0,1.78 0.31,3.28 0.92,4.51 0.61,1.17 1.56,2.06 2.83,2.67 1.28,0.56 2.92,0.84 4.92,0.84 1.39,0 3,-0.17 4.84,-0.5 1.89,-0.33 3.28,-0.61 4.17,-0.83l6.67 32.37c-2.05,0.62 -5,1.37 -8.83,2.25 -3.78,0.89 -8.28,1.48 -13.5,1.75 -10.56,0.56 -19.42,-0.53 -26.59,-3.25 -7.17,-2.78 -12.55,-7.15 -16.17,-13.1 -3.61,-5.95 -5.36,-13.4 -5.25,-22.36l0 -121.97z"/>
    <path class="fil1" d="M198.02 590.01c-13.89,0 -25.78,-2.75 -35.67,-8.26 -9.89,-5.56 -17.47,-13.29 -22.75,-23.19 -5.28,-9.95 -7.92,-21.5 -7.92,-34.62 0,-13.12 2.64,-24.64 7.92,-34.54 5.28,-9.95 12.86,-17.69 22.75,-23.19 9.89,-5.56 21.78,-8.35 35.67,-8.35 13.89,0 25.78,2.78 35.67,8.35 9.89,5.51 17.47,13.24 22.75,23.19 5.28,9.9 7.92,21.42 7.92,34.54 0,13.13 -2.64,24.67 -7.92,34.62 -5.28,9.9 -12.86,17.63 -22.75,23.19 -9.89,5.51 -21.78,8.26 -35.67,8.26zm0.34 -34.04c3.89,0 7.25,-1.31 10.08,-3.92 2.83,-2.61 5.03,-6.34 6.58,-11.18 1.56,-4.84 2.33,-10.6 2.33,-17.27 0,-6.73 -0.78,-12.49 -2.33,-17.27 -1.56,-4.84 -3.75,-8.56 -6.58,-11.18 -2.83,-2.61 -6.19,-3.92 -10.08,-3.92 -4.11,0 -7.64,1.31 -10.58,3.92 -2.94,2.61 -5.2,6.34 -6.75,11.18 -1.56,4.78 -2.33,10.54 -2.33,17.27 0,6.67 0.78,12.43 2.33,17.27 1.55,4.84 3.8,8.57 6.75,11.18 2.94,2.61 6.47,3.92 10.58,3.92z"/>
    <path class="fil2" d="M329.5 589.34c-9.11,0 -17.5,-2.39 -25.17,-7.18 -7.61,-4.78 -13.72,-12.04 -18.33,-21.77 -4.56,-9.73 -6.83,-22 -6.83,-36.79 0,-15.46 2.39,-28.03 7.17,-37.71 4.84,-9.68 11.06,-16.77 18.67,-21.27 7.66,-4.51 15.72,-6.76 24.17,-6.76 6.33,0 11.89,1.12 16.67,3.34 4.78,2.17 8.78,5.09 12,8.76 3.22,3.61 5.67,7.59 7.33,11.93l0.67 0 0 -65.07 46 0 0 170.86 -45.67 0 0 -21.02 -1 0c-1.78,4.34 -4.33,8.23 -7.67,11.68 -3.28,3.39 -7.28,6.09 -12,8.09 -4.67,1.95 -10,2.92 -16,2.92zm17 -35.37c4.22,0 7.83,-1.22 10.83,-3.67 3.05,-2.5 5.39,-6.01 7,-10.51 1.67,-4.56 2.5,-9.95 2.5,-16.18 0,-6.34 -0.83,-11.77 -2.5,-16.27 -1.61,-4.56 -3.94,-8.04 -7,-10.43 -3,-2.45 -6.61,-3.67 -10.83,-3.67 -4.22,0 -7.83,1.22 -10.84,3.67 -2.94,2.39 -5.22,5.87 -6.83,10.43 -1.56,4.5 -2.33,9.93 -2.33,16.27 0,6.34 0.78,11.79 2.33,16.35 1.61,4.51 3.89,7.98 6.83,10.43 3,2.39 6.61,3.59 10.84,3.59z"/>
    <path class="fil2" d="M496.09 590.01c-13.89,0 -25.78,-2.75 -35.67,-8.26 -9.89,-5.56 -17.47,-13.29 -22.75,-23.19 -5.28,-9.95 -7.92,-21.5 -7.92,-34.62 0,-13.12 2.64,-24.64 7.92,-34.54 5.28,-9.95 12.86,-17.69 22.75,-23.19 9.89,-5.56 21.78,-8.35 35.67,-8.35 13.89,0 25.78,2.78 35.67,8.35 9.89,5.51 17.47,13.24 22.75,23.19 5.27,9.9 7.91,21.42 7.91,34.54 0,13.13 -2.64,24.67 -7.91,34.62 -5.28,9.9 -12.86,17.63 -22.75,23.19 -9.89,5.51 -21.78,8.26 -35.67,8.26zm0.33 -34.04c3.89,0 7.25,-1.31 10.08,-3.92 2.83,-2.61 5.03,-6.34 6.58,-11.18 1.56,-4.84 2.33,-10.6 2.33,-17.27 0,-6.73 -0.78,-12.49 -2.33,-17.27 -1.56,-4.84 -3.75,-8.56 -6.58,-11.18 -2.83,-2.61 -6.19,-3.92 -10.08,-3.92 -4.11,0 -7.64,1.31 -10.58,3.92 -2.94,2.61 -5.19,6.34 -6.75,11.18 -1.55,4.78 -2.33,10.54 -2.33,17.27 0,6.67 0.78,12.43 2.33,17.27 1.56,4.84 3.81,8.57 6.75,11.18 2.94,2.61 6.47,3.92 10.58,3.92z"/>
   </g>
   <g>
    <path class="fil1" d="M298.63 38.82c33.84,43 51.9,96.03 51.24,150.44l0 12.99 11.16 6.8c14.42,8.74 25.18,22.3 30.31,38.2 -4.5,-3.32 -9.22,-6.36 -14.11,-9.1l-29.77 -16.73 -5.35 33.77c-0.46,2.98 -1.09,5.94 -1.86,8.86l-83.41 0c-1.24,-3.82 -2.25,-7.63 -3.18,-11.61l-6.74 -30.56 -27.44 15.29c-4.58,2.56 -9.01,5.4 -13.25,8.48 5.23,-15.72 15.76,-29.2 29.84,-38.21l10.62 -6.8 0 -12.07c0.19,-54.19 18.47,-106.81 52.01,-149.75l-0.08 0zm118.85 233.94l0 -9.01c-0.37,-7.64 -1.71,-15.26 -4.02,-22.69 -6.67,-21.42 -21,-39.71 -40.32,-51.5 0.77,-66.49 -23.92,-130.82 -69.15,-180.16 -0.67,-0.74 -1.5,-1.34 -2.41,-1.75 -0.88,-0.39 -1.83,-0.6 -2.79,-0.62l-0.14 0 0.08 0 -0.16 0c-1.68,0.05 -3.3,0.66 -4.56,1.75l-0.7 0.62c-44.71,49.27 -69.52,112.99 -69.77,179.09 -18.97,12.13 -33.01,30.44 -39.67,51.74 -6.66,21.3 -5.51,44.23 3.23,64.78 9.22,-20.07 24.63,-36.75 44.04,-47.68 1.95,8.31 4.54,16.46 7.75,24.37 0.41,1.53 1.31,2.87 2.57,3.84 1.26,0.97 2.81,1.5 4.41,1.51l107.6 0c2.17,0 4.34,-2.06 5.43,-5.27 3.14,-7.52 5.33,-15.41 6.51,-23.46 19.44,10.88 34.86,27.58 44.03,47.67 4.8,-10.58 7.5,-21.85 8.06,-33.24z"/>
    <path class="fil1" d="M298.63 182.15c-5.95,0 -11.77,-1.74 -16.72,-4.99 -4.96,-3.26 -8.82,-7.88 -11.11,-13.3 -2.29,-5.42 -2.9,-11.38 -1.75,-17.14 1.15,-5.76 4,-11.06 8.19,-15.23 4.19,-4.16 9.54,-7.01 15.38,-8.19 5.83,-1.17 11.89,-0.61 17.4,1.6 5.52,2.22 10.24,5.99 13.58,10.85 3.34,4.86 5.15,10.58 5.2,16.45 0.09,3.8 -0.58,7.59 -1.97,11.13 -1.39,3.55 -3.48,6.79 -6.14,9.55 -2.66,2.75 -5.85,4.96 -9.38,6.5 -3.53,1.54 -7.33,2.37 -11.19,2.47 -0.49,0.07 -0.98,0.07 -1.48,0l0 0.3z"/>
    <path class="fil2" d="M340.57 306.08c-1.94,-0.06 -3.87,0.26 -5.68,0.94 -1.81,0.68 -3.47,1.72 -4.87,3.05 -1.4,1.33 -2.52,2.91 -3.29,4.67 -0.77,1.76 -1.18,3.64 -1.2,5.56l0 45.08c0,3.93 1.58,7.7 4.4,10.48 2.82,2.78 6.65,4.34 10.63,4.34 3.99,0 7.82,-1.56 10.64,-4.34 2.82,-2.78 4.4,-6.55 4.4,-10.48l0 -44.47c0.06,-1.9 -0.26,-3.8 -0.95,-5.58 -0.69,-1.78 -1.73,-3.41 -3.07,-4.79 -1.34,-1.38 -2.93,-2.49 -4.71,-3.25 -1.77,-0.77 -3.68,-1.17 -5.61,-1.2l-0.7 0z"/>
    <path class="fil2" d="M256.85 306.08c-1.97,-0.11 -3.94,0.18 -5.8,0.85 -1.86,0.66 -3.56,1.69 -5.01,3.02 -1.45,1.32 -2.6,2.92 -3.41,4.7 -0.81,1.78 -1.24,3.7 -1.28,5.65l0 45.08c0,3.93 1.58,7.7 4.4,10.48 2.82,2.78 6.65,4.34 10.63,4.34 3.99,0 7.82,-1.56 10.64,-4.34 2.82,-2.78 4.4,-6.55 4.4,-10.48l0 -44.47c0.06,-1.9 -0.26,-3.8 -0.95,-5.58 -0.69,-1.78 -1.73,-3.41 -3.07,-4.79 -1.34,-1.38 -2.93,-2.49 -4.71,-3.25 -1.77,-0.77 -3.68,-1.17 -5.61,-1.2l-0.24 0z"/>
    <path class="fil2" d="M297.55 306.08c-1.93,-0.04 -3.86,0.29 -5.66,0.98 -1.8,0.69 -3.45,1.73 -4.85,3.05 -1.4,1.32 -2.52,2.9 -3.29,4.64 -0.78,1.75 -1.2,3.63 -1.24,5.54l0 62.12c0,3.93 1.59,7.7 4.4,10.48 2.46,2.42 5.68,3.92 9.1,4.26l3.07 0c3.43,-0.35 6.65,-1.84 9.1,-4.26 2.82,-2.78 4.41,-6.55 4.41,-10.48l0 -61.12c0.06,-1.9 -0.26,-3.8 -0.95,-5.58 -0.69,-1.78 -1.73,-3.41 -3.07,-4.79 -1.33,-1.38 -2.93,-2.49 -4.71,-3.25 -1.77,-0.77 -3.68,-1.17 -5.62,-1.2l-0.7 -0.38z"/>
   </g>
  </g>
 </g>
</svg>
